<?xml version="1.0" encoding="utf-8"?>
<!-- Generator: Adobe Illustrator 24.1.1, SVG Export Plug-In . SVG Version: 6.00 Build 0)  -->
<svg version="1.1" id="a79c70b2-3a32-4f99-833c-b78d151fe0d8"
	 xmlns="http://www.w3.org/2000/svg" xmlns:xlink="http://www.w3.org/1999/xlink" x="0px" y="0px" viewBox="0 0 790.5 730.5"
	 style="enable-background:new 0 0 790.5 730.5;" xml:space="preserve">
<style type="text/css">
	.st0{fill:#3F3D56;}
	.st1{fill:#FFFFFF;}
	.st2{fill:#2697B0;}
	.st3{fill:#E6E6E6;}
	.st4{fill:#A0616A;}
	.st5{fill:#2F2E41;}
	.st6{fill:#575A89;}
	.st7{opacity:0.2;enable-background:new    ;}
	.st8{fill:#FF6584;}
	.st9{opacity:0.1;enable-background:new    ;}
</style>
<path class="st0" d="M47.9,58.3C21.5,58.4,0,79.8,0,106.3v552c0,26.4,21.5,47.9,47.9,47.9h404.9c26.4,0,47.9-21.5,47.9-47.9v-552
	c0-26.4-21.5-47.9-47.9-47.9H47.9z"/>
<rect x="24.9" y="92.4" class="st1" width="450.9" height="579.8"/>
<rect x="83.9" y="196.3" class="st2" width="333" height="21.9"/>
<rect x="83.9" y="254.6" class="st2" width="333" height="21.9"/>
<rect x="83.9" y="313" class="st2" width="333" height="21.9"/>
<rect x="83.9" y="371.3" class="st2" width="333" height="21.9"/>
<rect x="83.9" y="429.6" class="st2" width="333" height="21.9"/>
<rect x="83.9" y="488" class="st2" width="333" height="21.9"/>
<rect x="83.9" y="546.3" class="st2" width="333" height="21.9"/>
<rect x="127.5" y="82.3" transform="matrix(0.9837 -0.18 0.18 0.9837 -48.8402 58.03)" class="st3" width="335.7" height="431.6"/>
<rect x="147.9" y="161.8" transform="matrix(0.9837 -0.18 0.18 0.9837 -26.1505 51.7138)" class="st2" width="247.9" height="16.3"/>
<rect x="155.7" y="204.5" transform="matrix(0.9837 -0.18 0.18 0.9837 -33.7138 53.8192)" class="st2" width="247.9" height="16.3"/>
<rect x="163.5" y="247.2" transform="matrix(0.9837 -0.18 0.18 0.9837 -41.277 55.9246)" class="st2" width="247.9" height="16.3"/>
<rect x="171.3" y="290" transform="matrix(0.9837 -0.18 0.18 0.9837 -48.8402 58.03)" class="st2" width="247.9" height="16.3"/>
<rect x="179.2" y="332.7" transform="matrix(0.9837 -0.18 0.18 0.9837 -56.4028 60.1339)" class="st2" width="247.9" height="16.3"/>
<rect x="187" y="375.4" transform="matrix(0.9837 -0.18 0.18 0.9837 -63.9667 62.2408)" class="st2" width="247.9" height="16.3"/>
<rect x="194.8" y="418.1" transform="matrix(0.9837 -0.18 0.18 0.9837 -71.5299 64.3462)" class="st2" width="247.9" height="16.3"/>
<rect x="572.1" y="527.6" transform="matrix(0.9837 -0.18 0.18 0.9837 -95.8486 121.1502)" class="st3" width="95" height="122.1"/>
<rect x="577.9" y="550.1" transform="matrix(0.9837 -0.18 0.18 0.9837 -89.4284 119.363)" class="st1" width="70.2" height="4.6"/>
<rect x="580.1" y="562.2" transform="matrix(0.9837 -0.18 0.18 0.9837 -91.5685 119.9587)" class="st1" width="70.2" height="4.6"/>
<rect x="582.3" y="574.3" transform="matrix(0.9837 -0.18 0.18 0.9837 -93.7085 120.5545)" class="st1" width="70.2" height="4.6"/>
<rect x="584.5" y="586.4" transform="matrix(0.9837 -0.18 0.18 0.9837 -95.8486 121.1502)" class="st1" width="70.2" height="4.6"/>
<rect x="586.7" y="598.5" transform="matrix(0.9837 -0.18 0.18 0.9837 -97.9886 121.7459)" class="st1" width="70.2" height="4.6"/>
<rect x="588.9" y="610.6" transform="matrix(0.9837 -0.18 0.18 0.9837 -100.1287 122.3417)" class="st1" width="70.2" height="4.6"/>
<rect x="591.1" y="622.6" transform="matrix(0.9837 -0.18 0.18 0.9837 -102.2687 122.9374)" class="st1" width="70.2" height="4.6"/>
<path class="st0" d="M333.9,30.4h-39.7v-8.1c0-12.3-10-22.3-22.3-22.3h-43c-12.3,0-22.3,10-22.3,22.3v8.1h-39.7
	c-12.3,0-22.3,10-22.3,22.3v0v61.6h211.5V52.6C356.1,40.3,346.2,30.4,333.9,30.4L333.9,30.4z"/>
<path class="st0" d="M236.1,630c6.6-4.5,13.3-9.2,21.1-11.2c7.1-1.9,15.3-1.4,20.9,3.8c4.5,4.2,6.5,10.7,3.1,16.2
	c-1.5,2.6-3.9,4.4-6.8,5c-2.8,0.4-5.6-0.7-7.4-2.9c-1.8-2-2.8-4.8-1.9-7.4c1-2.7,3.6-4.4,6.2-5.3c3-1,6.1-1.6,9.3-1.9l12.9-1.8
	l52.8-7.2l58.8-8c1-0.3,1.5-1.3,1.3-2.2c-0.3-1-1.3-1.5-2.2-1.3l-116.9,16c-4.2,0.6-8.5,1-12.7,1.8c-3.3,0.5-6.4,1.8-9.1,3.8
	c-5.6,4.4-5.2,12.3,0,16.9c5.2,4.7,12.8,3.9,17.4-1.3c4.8-5.4,5.3-13.3,1.2-19.3c-5-7.5-14.1-10.4-22.8-9.4
	c-10.1,1.2-18.6,6.9-26.8,12.5C232.3,628.1,234.2,631.3,236.1,630L236.1,630z"/>
<path class="st4" d="M646.4,494.8l1.2,12.2c0,0-7.3,26.7,8.5,26.7s3.6-26.7,3.6-26.7l1.2-9.7L646.4,494.8z"/>
<path class="st4" d="M756.8,454.3l-5.6,10.9c0,0-20.6,18.5-7.4,27.1s17.6-20.5,17.6-20.5l6.3-7.5L756.8,454.3z"/>
<path class="st5" d="M665.9,505.8l17,115.5l8.5,82.6c0,0,7.3,18.2,31.6,2.4l-3.6-47.4l-2.4-42.5c0,0-2.4-41.3-4.9-48.6
	s1.2-31.6,1.2-31.6l9.7-40.1L665.9,505.8z"/>
<path class="st5" d="M693.8,701.5l-9.7,10.9c0,0-14.6-4.9-18.2,4.9s28,12.2,28,12.2s32.8,2.4,32.8,0s-0.9-21-5.3-22.1
	S693.8,701.5,693.8,701.5z"/>
<path class="st5" d="M712,499.7l17,121.5l8.5,82.6c0,0,7.3,18.2,31.6,2.4l-3.6-47.4l-2.4-42.5c0,0-2.4-41.3-4.9-48.6
	s1.2-31.6,1.2-31.6l-2.4-45L712,499.7z"/>
<path class="st5" d="M740,701.5l-9.7,10.9c0,0-14.6-4.9-18.2,4.9s28,12.2,28,12.2s32.8,2.4,32.8,0s-0.9-21-5.3-22.1
	S740,701.5,740,701.5z"/>
<circle class="st4" cx="675.6" cy="282.1" r="25.5"/>
<polygon class="st4" points="694.4,293.7 705.4,311.9 677.4,324.1 673.8,302.2 "/>
<path class="st6" d="M708.4,310.1c0,0-25.5-2.4-35.2,13.4l-24,18.2c-4,3-6,7.9-5.3,12.8l20.8,157.3l30.4-1.2l49.8-9.7l14.6-3.6
	l-7.3-64.4c0,0-8.5-25.5,1.2-42.5l-4.9-59.6l-34-13.4L708.4,310.1z"/>
<path class="st6" d="M651.3,346.6l-1.8-3c0,0-2.4,0-2.4,4.9s-4.3,110-4.3,110l-1.2,40.1l23.1,2.4l8.5-75.4l-3.6-49.8L651.3,346.6z"
	/>
<path class="st6" d="M731.5,328.3l17,2.4c6.6,6.9,12.3,14.7,17,23.1c7.3,13.4,29.2,38.9,24.3,58.3c-4.9,19.4-19.4,54.7-19.4,54.7
	l-23.1-9.7c0,0,18.2-42.5,17-46.2s-15.8-25.5-15.8-25.5L731.5,328.3z"/>
<path class="st5" d="M658,268.2c0,0-20.7-1.2-7.3-14.6c0,0,10.9-4.9,15.8-2.4c0,0,7.3-4.9,7.3-2.4c0,0,25.5-7.3,29.2,18.2
	s-2.4,37.7-2.4,37.7l-17-1.2c0,0,3.6-20.7-9.7-18.2c0,0-10.9,3.6-12.2,0S658,268.2,658,268.2z"/>
<polygon class="st7" points="667.7,499.1 678.6,426.2 671.3,381.2 673.8,430.1 666.5,499.1 "/>
<path class="st8" d="M410.6,223.6l-6.9-6.9c-8.3-8.3-21.9-8.3-30.2,0L240.5,349.8L107.4,216.7c-8.3-8.3-21.9-8.3-30.2,0l-6.9,6.9
	c-8.3,8.3-8.3,21.9,0,30.2l0,0l133.1,133.1L70.3,520c-8.3,8.3-8.3,21.9,0,30.2l6.9,6.9c8.3,8.3,21.9,8.3,30.2,0l133.1-133.1
	L373.6,557c8.3,8.3,21.9,8.3,30.2,0l6.9-6.9c8.3-8.3,8.3-21.9,0-30.2L277.5,386.9l133.1-133.1C419,245.4,419,231.9,410.6,223.6z"/>
<path class="st9" d="M67.7,227.9c8.3-8.3,21.9-8.3,30.2,0l0,0L231,361l133.1-133.1c8.3-8.3,21.9-8.3,30.2,0l0,0l6.9,6.9
	c6,6,7.9,15,4.8,22.9l4-4c8.3-8.3,8.3-21.9,0-30.2c0,0,0,0,0,0l-6.9-6.9c-8.3-8.3-21.9-8.3-30.2,0L239.7,349.8L106.6,216.7
	c-8.3-8.3-21.9-8.3-30.2,0l-6.9,6.9c-2.1,2.1-3.7,4.5-4.8,7.2L67.7,227.9z"/>
</svg>
