<?xml version="1.0" encoding="utf-8"?>
<!-- Generator: Adobe Illustrator 24.1.1, SVG Export Plug-In . SVG Version: 6.00 Build 0)  -->
<svg version="1.1" id="_x33_ecf9745-447a-4766-8a86-6837975429df"
	 xmlns="http://www.w3.org/2000/svg" xmlns:xlink="http://www.w3.org/1999/xlink" x="0px" y="0px" viewBox="0 0 729.5 695.1"
	 style="enable-background:new 0 0 729.5 695.1;" xml:space="preserve">
<style type="text/css">
	.st0{fill:url(#SVGID_1_);}
	.st1{fill:#F5F5F5;}
	.st2{fill:url(#SVGID_2_);}
	.st3{fill:#F4F4F4;}
	.st4{fill:#FFFFFF;}
	.st5{fill:url(#SVGID_3_);}
	.st6{fill:#F7F7F7;}
	.st7{fill:url(#SVGID_4_);}
	.st8{fill:#FAFAFA;}
	.st9{fill:url(#SVGID_5_);}
	.st10{fill:url(#SVGID_6_);}
	.st11{fill:url(#SVGID_7_);}
	.st12{clip-path:url(#SVGID_9_);}
	.st13{fill:#2697B0;}
	.st14{fill:#FF5252;}
	.st15{fill:#FF6584;}
	.st16{opacity:0.1;enable-background:new    ;}
</style>
<linearGradient id="SVGID_1_" gradientUnits="userSpaceOnUse" x1="611.975" y1="10.8" x2="611.975" y2="439.27" gradientTransform="matrix(1 0 0 -1 0 698)">
	<stop  offset="0" style="stop-color:#808080;stop-opacity:0.25"/>
	<stop  offset="0.54" style="stop-color:#808080;stop-opacity:0.12"/>
	<stop  offset="1" style="stop-color:#808080;stop-opacity:0.1"/>
</linearGradient>
<polygon class="st0" points="619,687.2 513.5,687.2 513.5,258.7 710.4,258.7 "/>
<polygon class="st1" points="613.7,687.2 510.4,687.2 510.4,258.7 703.3,258.7 "/>
<linearGradient id="SVGID_2_" gradientUnits="userSpaceOnUse" x1="406.1613" y1="349.434" x2="447.8613" y2="621.914" gradientTransform="matrix(1.0077 -0.1467 -0.1494 -1.0173 -123.5034 696.1656)">
	<stop  offset="0" style="stop-color:#808080;stop-opacity:0.25"/>
	<stop  offset="0.54" style="stop-color:#808080;stop-opacity:0.12"/>
	<stop  offset="1" style="stop-color:#808080;stop-opacity:0.1"/>
</linearGradient>
<polygon class="st2" points="0,118.2 423,0 468.4,162.6 45.5,280.8 "/>
<rect x="19.1" y="58.2" transform="matrix(0.9631 -0.2693 0.2693 0.9631 -28.991 68.4394)" class="st3" width="431.9" height="163.4"/>
<rect x="132.6" y="128.2" transform="matrix(0.9631 -0.2693 0.2693 0.9631 -28.7171 55.2277)" class="st1" width="108.6" height="8.3"/>
<rect x="141.6" y="160.1" transform="matrix(0.9631 -0.2693 0.2693 0.9631 -36.9819 58.8097)" class="st4" width="108.6" height="8.3"/>
<rect x="135.9" y="135.2" transform="matrix(0.9631 -0.2693 0.2693 0.9631 -29.2853 65.2399)" class="st4" width="174.6" height="8.3"/>
<circle class="st4" cx="94.3" cy="175.4" r="19.3"/>
<linearGradient id="SVGID_3_" gradientUnits="userSpaceOnUse" x1="596.9926" y1="244.9486" x2="596.9926" y2="559.3175" gradientTransform="matrix(1 0 0 -1 -235.252 595.5515)">
	<stop  offset="0" style="stop-color:#808080;stop-opacity:0.25"/>
	<stop  offset="0.54" style="stop-color:#808080;stop-opacity:0.12"/>
	<stop  offset="1" style="stop-color:#808080;stop-opacity:0.1"/>
</linearGradient>
<polygon class="st5" points="125.1,190.2 538.6,36.2 598.4,196.6 184.8,350.6 "/>
<rect x="145.8" y="112.4" transform="matrix(0.9372 -0.3489 0.3489 0.9372 -44.9994 138.3923)" class="st6" width="431.9" height="163.4"/>
<rect x="258.9" y="186.4" transform="matrix(0.9372 -0.3489 0.3489 0.9372 -46.8034 121.2491)" class="st1" width="108.7" height="8.3"/>
<rect x="270.4" y="217.5" transform="matrix(0.9372 -0.3489 0.3489 0.9372 -56.9136 127.2377)" class="st4" width="108.6" height="8.3"/>
<rect x="264.3" y="190.6" transform="matrix(0.9371 -0.3489 0.3489 0.9371 -45.8506 135.0232)" class="st4" width="175.1" height="8.3"/>
<circle class="st4" cx="224.5" cy="241.3" r="19.3"/>
<linearGradient id="SVGID_4_" gradientUnits="userSpaceOnUse" x1="753.9799" y1="216.6872" x2="769.6151" y2="456.0567" gradientTransform="matrix(1.0203 -8.235779e-02 -6.725177e-02 -1.048 -256.8941 683.7655)">
	<stop  offset="0" style="stop-color:#808080;stop-opacity:0.25"/>
	<stop  offset="0.54" style="stop-color:#808080;stop-opacity:0.12"/>
	<stop  offset="1" style="stop-color:#808080;stop-opacity:0.1"/>
</linearGradient>
<polygon class="st7" points="266,314.7 296.1,145.2 729.5,222.3 699.3,391.8 "/>
<rect x="414.8" y="51.6" transform="matrix(0.1754 -0.9845 0.9845 0.1754 146.062 709.3569)" class="st8" width="163.4" height="431.9"/>
<rect x="452.4" y="185.5" transform="matrix(0.1754 -0.9845 0.9845 0.1754 140.3721 647.1731)" class="st1" width="8.3" height="108.6"/>
<rect x="446.6" y="218.1" transform="matrix(0.1754 -0.9845 0.9845 0.1754 103.446 668.3757)" class="st4" width="8.3" height="108.6"/>
<rect x="481.9" y="174.6" transform="matrix(0.1754 -0.9845 0.9845 0.1754 142.9818 694.4976)" class="st4" width="8.3" height="174.6"/>
<ellipse transform="matrix(0.1754 -0.9845 0.9845 0.1754 57.4643 545.4565)" class="st4" cx="354.3" cy="238.4" rx="19.3" ry="19.3"/>
<linearGradient id="SVGID_5_" gradientUnits="userSpaceOnUse" x1="310" y1="2.91" x2="310" y2="494.14" gradientTransform="matrix(1 0 0 -1 0 698)">
	<stop  offset="0" style="stop-color:#808080;stop-opacity:0.25"/>
	<stop  offset="0.54" style="stop-color:#808080;stop-opacity:0.12"/>
	<stop  offset="1" style="stop-color:#808080;stop-opacity:0.1"/>
</linearGradient>
<polygon class="st9" points="171.8,253.7 100.6,203.9 2.1,203.9 2.1,253.7 2.1,278.1 2.1,695.1 617.9,695.1 617.9,253.7 "/>
<polygon class="st4" points="174.4,258.7 104.4,210.4 7.3,210.4 7.3,258.7 7.3,282.4 7.3,687.2 613.7,687.2 613.7,258.7 "/>
<linearGradient id="SVGID_6_" gradientUnits="userSpaceOnUse" x1="545.795" y1="2.1899" x2="545.795" y2="233.35" gradientTransform="matrix(1 0 0 -1 -235.26 595.55)">
	<stop  offset="0" style="stop-color:#B3B3B3;stop-opacity:0.25"/>
	<stop  offset="0.54" style="stop-color:#B3B3B3;stop-opacity:0.1"/>
	<stop  offset="1" style="stop-color:#B3B3B3;stop-opacity:5.000000e-02"/>
</linearGradient>
<path class="st10" d="M476.3,586.1c0,4-3.2,7.3-7.2,7.3H152c-4,0-7.2-3.3-7.2-7.3V369.5c0-4,3.2-7.3,7.2-7.3h317.1
	c4,0,7.2,3.3,7.2,7.3"/>
<path class="st4" d="M472.5,582.5c0,3.9-3.1,7-7,7H155.8c-3.9,0-7-3.1-7-7V373.2c0-3.9,3.1-7,7-7h309.7c3.9,0,7,3.1,7,7"/>
<g id="_x31_14cebd5-d8fe-4021-8e49-fe55d7dac6be">
	
		<linearGradient id="SVGID_7_" gradientUnits="userSpaceOnUse" x1="310.805" y1="117.39" x2="310.805" y2="322.15" gradientTransform="matrix(1 0 0 -1 0 698)">
		<stop  offset="0" style="stop-color:#B3B3B3;stop-opacity:0.25"/>
		<stop  offset="0.54" style="stop-color:#B3B3B3;stop-opacity:0.1"/>
		<stop  offset="1" style="stop-color:#B3B3B3;stop-opacity:5.000000e-02"/>
	</linearGradient>
	<path class="st11" d="M170,375.9h281.7c4.9,0,8.9,4,8.9,8.9v187.1c0,4.9-4,8.8-8.9,8.8H170c-4.9,0-8.9-4-8.9-8.8V384.7
		C161.1,379.8,165.1,375.9,170,375.9z"/>
</g>
<path class="st4" d="M173.7,380.8h274c4.9,0,8.9,4,8.9,8.9V566c0,4.9-4,8.8-8.9,8.8h-274c-4.9,0-8.9-4-8.9-8.8V389.7
	C164.8,384.8,168.8,380.8,173.7,380.8z"/>
<g>
	<defs>
		<path id="SVGID_8_" d="M173.7,380.8h274c4.9,0,8.8,4,8.8,8.9V566c0,4.9-4,8.8-8.8,8.8h-274c-4.9,0-8.9-4-8.9-8.8V389.7
			C164.8,384.8,168.8,380.8,173.7,380.8z"/>
	</defs>
	<clipPath id="SVGID_9_">
		<use xlink:href="#SVGID_8_"  style="overflow:visible;"/>
	</clipPath>
	<g class="st12">
		<path class="st13" d="M148.6,573.1l81.4-93.3c5.9-6.7,16.1-7.4,22.9-1.6c0,0,0,0,0.1,0.1l22.8,20.1c6,5.3,15,5.4,21.2,0.3
			l69.7-58.6c6.7-5.6,16.6-5,22.4,1.5l85.5,94.1c2.4,2.6,3.8,5.9,4.2,9.5l3.3,37.1c0.8,8.9-5.8,16.8-14.7,17.6c-0.5,0-1,0.1-1.4,0.1
			H160.8c-8.8,0-15.9-7-16.2-15.7l0,0C144.5,580.1,145.9,576.2,148.6,573.1z"/>
	</g>
</g>
<circle class="st14" cx="199.9" cy="412" r="18.1"/>
<path class="st15" d="M505.2,328.8l-6.9-6.9c-8.3-8.3-21.9-8.3-30.2,0L335,455L201.9,321.9c-8.3-8.3-21.9-8.3-30.2,0l-6.9,6.9
	c-8.3,8.3-8.3,21.9,0,30.2l0,0l133.1,133.1L164.8,625.2c-8.3,8.3-8.3,21.9,0,30.2l6.9,6.9c8.3,8.3,21.9,8.3,30.2,0L335,529.1
	l133.1,133.1c8.3,8.3,21.9,8.3,30.2,0l6.9-6.9c8.3-8.3,8.3-21.9,0-30.2L372,492.1l133.1-133.1C513.5,350.6,513.5,337.1,505.2,328.8z
	"/>
<path class="st16" d="M162.2,334c8.3-8.3,21.9-8.3,30.2,0l0,0l133.1,133.1L458.7,334c8.3-8.3,21.9-8.3,30.2,0l0,0l6.9,6.9
	c6,6,7.9,15,4.8,22.9l4-4c8.3-8.3,8.3-21.9,0-30.2c0,0,0,0,0,0l-6.9-6.9c-8.3-8.3-21.9-8.3-30.2,0L334.2,455.9L201.1,322.8
	c-8.3-8.3-21.9-8.3-30.2,0l-6.9,6.9c-2.1,2.1-3.7,4.5-4.8,7.2L162.2,334z"/>
</svg>
