<?xml version="1.0" encoding="utf-8"?>
<!-- Generator: Adobe Illustrator 24.1.1, SVG Export Plug-In . SVG Version: 6.00 Build 0)  -->
<svg version="1.1" id="Capa_1" xmlns="http://www.w3.org/2000/svg" xmlns:xlink="http://www.w3.org/1999/xlink" x="0px" y="0px"
	 viewBox="0 0 459.51 690.05" style="enable-background:new 0 0 459.51 690.05;" xml:space="preserve">
<style type="text/css">

	.st2#trazo1_1_ {
		fill:none;
		stroke:#1E1E1E;
		stroke-width:0.75;
		stroke-dasharray: 2700;
		stroke-dashoffset: 0;
		stroke-miterlimit:10;
		-webkit-animation: animacion 5s forwards;
		-moz-animation: animacion 5s forwards;
		-o-animation: animacion 5s forwards;
		animation: animacion 5s forwards;
	}
	@-webkit-keyframes animacion {
		from{
			stroke-dashoffset: 2700;
		}
		to{
			stroke-dashoffset: 0;
		}
	}
	@keyframes animacion {
		from{
			stroke-dashoffset: 2700;
		}
		to{
			stroke-dashoffset: 0;
		}
	}
	.st2#trazo2_1_ {
		fill:none;
		stroke:#1E1E1E;
		stroke-width:0.75;
		stroke-miterlimit:10;
		stroke-dasharray: 250;
		stroke-dashoffset: 0;
		-webkit-animation: animacion2 5s forwards;
		-moz-animation: animacion2 5s forwards;
		-o-animation: animacion2 5s forwards;
		animation: animacion2 5s forwards;
	}
	@-webkit-keyframes animacion2 {
		from{
			stroke-dashoffset: 250;
		}
		to{
			stroke-dashoffset: 0;
		}
	}
	@keyframes animacion2 {
		from{
			stroke-dashoffset: 250;
		}
		to{
			stroke-dashoffset: 0;
		}
	}
	.st2#trazo3_1_ {
		fill:none;
		stroke:#1E1E1E;
		stroke-width:0.75;
		stroke-miterlimit:10;
		stroke-dasharray: 1500;
		stroke-dashoffset: 0;
		-webkit-animation: animacion3 5s forwards;
		-moz-animation: animacion3 5s forwards;
		-o-animation: animacion3 5s forwards;
		animation: animacion3 5s forwards;
	}
	@-webkit-keyframes animacion3 {
		from{
			stroke-dashoffset: 1500;
		}
		to{
			stroke-dashoffset: 0;
		}
	}
	@keyframes animacion3 {
		from{
			stroke-dashoffset: 1500;
		}
		to{
			stroke-dashoffset: 0;
		}
	}
	.st2#trazo4_1_ {
		fill:none;
		stroke:#1E1E1E;
		stroke-width:0.75;
		stroke-miterlimit:10;
		stroke-dasharray: 500;
		stroke-dashoffset: 0;
		-webkit-animation: animacion4 5s forwards;
		-moz-animation: animacion4 5s forwards;
		-o-animation: animacion4 5s forwards;
		animation: animacion4 5s forwards;
	}
	@-webkit-keyframes animacion4 {
		from{
			stroke-dashoffset: 500;
		}
		to{
			stroke-dashoffset: 0;
		}
	}
	@keyframes animacion4 {
		from{
			stroke-dashoffset: 500;
		}
		to{
			stroke-dashoffset: 0;
		}
	}
	.st2#trazo5_1_ {
		fill:none;
		stroke:#1E1E1E;
		stroke-width:0.75;
		stroke-miterlimit:10;
		stroke-dasharray: 800;
		stroke-dashoffset: 0;
		-webkit-animation: animacion5 5s forwards;
		-moz-animation: animacion5 5s forwards;
		-o-animation: animacion5 5s forwards;
		animation: animacion5 5s forwards;
	}
	.st2#trazo6_1_ {
		fill:none;
		stroke:#1E1E1E;
		stroke-width:0.75;
		stroke-miterlimit:10;
		stroke-dasharray: 800;
		stroke-dashoffset: 0;
		-webkit-animation: animacion5 5s forwards;
		-moz-animation: animacion5 5s forwards;
		-o-animation: animacion5 5s forwards;
		animation: animacion5 5s forwards;
	}
	@-webkit-keyframes animacion5 {
		from{
			stroke-dashoffset: 800;
		}
		to{
			stroke-dashoffset: 0;
		}
	}
	@keyframes animacion5 {
		from{
			stroke-dashoffset: 800;
		}
		to{
			stroke-dashoffset: 0;
		}
	}



	<!-- forwards -->
	.st0#logcolor1{
		fill:transparent;
		-webkit-animation: color1 5s forwards 4.5s;
		-moz-animation: color1 5s forwards 4.5s;
		-o-animation: color1 5s forwards 4.5s;
		animation: color1 5s forwards 4.5s;
	}

	@-webkit-keyframes color1 {
		from{
			fill: transparent;
		}
		to{
			fill: #0098B2;
		}
	}
	@keyframes color1 {
		from{
			fill: transparent;
		}
		to{
			fill: #0098B2;
		}
	}

	.st0#logcolor2{
		fill:transparent;
		-webkit-animation: color2 5s forwards 5s ;
		-moz-animation: color2 5s forwards 5s ;
		-o-animation: color2 5s forwards 5s ;
		animation: color2 5s forwards 5s ;
	}

	@-webkit-keyframes color2 {
		from{
			fill: transparent;
		}
		to{
			fill: #0098B2;
		}
	}
	@keyframes color2 {
		from{
			fill: transparent;
		}
		to{
			fill: #0098B2;
		}
	}

	.st0#logcolor3{
		fill:transparent;
		-webkit-animation: color3 5s forwards 5.5s;
		-moz-animation: color3 5s forwards 5.5s;
		-o-animation: color3 5s forwards 5.5s;
		animation: color3 5s forwards 5.5s;
	}

	@-webkit-keyframes color3 {
		from{
			fill: transparent;
		}
		to{
			fill: #0098B2;
		}
	}
	@keyframes color3 {
		from{
			fill: transparent;
		}
		to{
			fill: #0098B2;
		}
	}


	.st1#logcolor4{
        fill:transparent;
        -webkit-animation: color4 5s forwards 6s;
        -moz-animation: color4 5s forwards 6s;
        -o-animation: color4 5s forwards 6s;
        animation: color4 5s forwards 6s;
    }
    @-webkit-keyframes color4 {
        from{
            fill: transparent;
        }
        to{
            fill: #FFFFFF;
        }
    }
    @keyframes color4 {
        from{
            fill: transparent;
        }
        to{
            fill: #FFFFFF;
        }
    }

	.st1#logcolor5{
        fill:transparent;
        -webkit-animation: color5 5s forwards 6.5s;
        -moz-animation: color5 5s forwards 6.5s;
        -o-animation: color5 5s forwards 6.5s;
        animation: color5 5s forwards 6.5s;
    }
    @-webkit-keyframes color5 {
        from{
            fill: transparent;
        }
        to{
            fill: #FFFFFF;
        }
    }
    @keyframes color5 {
        from{
            fill: transparent;
        }
        to{
            fill: #FFFFFF;
        }
    }


	.st1#logcolor6{
        fill:transparent;
        -webkit-animation: color6 5s forwards 7s;
        -moz-animation: color6 5s forwards 7s;
        -o-animation: color6 5s forwards 7s;
        animation: color6 5s forwards 7s;
    }
    @-webkit-keyframes color6 {
        from{
            fill: transparent;
        }
        to{
            fill: #FFFFFF;
        }
    }
    @keyframes color6 {
        from{
            fill: transparent;
        }
        to{
            fill: #FFFFFF;
        }
    }
</style>
<g id="logo">
	<g>
		<path id="logcolor3" class="st0" d="M266.53,538.43c1.72-1.18,3.44-2.37,5.17-3.54c14.82-9.96,34.1-8.52,46.58,3.26
			c2.39,2.26,2.68,3.98,0.85,6.76c-13.13,19.88-26.2,39.81-39.09,59.84c-3,4.66-6.51,6.71-12.26,6.65
			c-26.18-0.29-52.36-0.21-78.54-0.04c-4.54,0.03-7.4-1.59-9.83-5.35c-13.02-20.15-26.13-40.25-39.45-60.21
			c-2.56-3.83-1.85-6.05,1.39-8.75c11.69-9.76,28.65-11.39,42.6-3.83c1.86,1.01,3.7,2.07,6.42,3.59c0.22-2.49,0.52-4.18,0.51-5.87
			c-0.39-60.3-9.47-119.23-27.92-176.69c-1.21-3.77-3.01-5.46-7.08-6.31c-23.99-4.98-40.38-26.19-39.14-50.82
			c0.31-6.26-1-10.72-5.47-15.47c-19.91-21.13-23.11-52.68-8.83-77.85c1.53-2.7,2.43-6.21,2.36-9.32
			c-0.62-27.33,15.98-49.82,42.3-57.36c2.13-0.61,4.76-2.8,5.4-4.81c9.9-31.31,50.22-40.98,73.54-17.93
			c3.28,3.24,4.84,0.72,6.9-1.13c21.45-19.26,55.22-14.34,68.37,11.16c4.44,8.61,9.68,12.92,18.33,16.28
			c21.41,8.32,34.86,31.74,32.97,54.41c-0.19,2.29,0.58,4.98,1.73,7.01c16.26,28.71,12.28,59.11-10.75,82.99
			c-1.64,1.7-2.68,4.96-2.43,7.33c2.95,27.69-14.45,51.12-42,55.93c-3.52,0.61-4.95,2.55-5.98,5.68
			c-8.72,26.61-15.15,53.78-19.8,81.36c-5.37,31.88-8.18,64-8.23,96.35c0,1.97,0,3.93,0,5.9
			C265.6,537.92,266.06,538.17,266.53,538.43z"/>
		<path id="logcolor1" class="st0" d="M0.25,230.1c1.52-69.37,26.62-128.36,78.92-174.74c31.66-28.08,68.89-45.19,110.91-51.31
			c11.99-1.75,24.16-4.01,36.17-3.64c47.89,1.47,93.37,11.84,133.62,39.51c34.98,24.04,59.08,56.81,76.32,95.06
			c11.15,24.74,18.89,50.5,21.82,77.51c4.14,38.12-2.1,74.59-18.35,109.35c-12.5,26.74-30.7,49.37-50.29,71.15
			c-23.14,25.74-42.48,53.98-52.32,87.65c-3.02,10.33-4.61,21.08-6.82,31.65c-0.94,4.52-2.14,9.23-7,10.72
			c-5.17,1.59-9.12-1.46-12.84-4.92c-7.58-7.04-6.81-15.6-5.27-24.56c7.34-42.93,25.54-80.13,56.52-111.25
			c13-13.05,25.23-27.16,35.99-42.1c19.03-26.41,30.48-56.16,32.44-88.91c3.82-63.9-15.2-120.04-59.73-166.41
			c-28.1-29.26-63.79-45.38-103.15-53.52C157.39,8.66,52.91,82.37,32.07,187.83c-14.48,73.3,5.87,137.09,57.94,190.47
			c23.13,23.71,40.97,50.43,50.28,82.27c3.95,13.5,6.14,27.53,8.74,41.39c1.54,8.2-3.04,14.11-8.98,18.87
			c-6.13,4.91-12.67,3-14.77-4.6c-1.89-6.86-2.58-14.04-3.97-21.04c-7.01-35.19-24.23-65.33-46.34-92.99
			c-11.13-13.92-23.24-27.13-33.56-41.61C18.51,328.5,5.37,292.51,1.72,253.19C1.01,245.57,0.74,237.92,0.25,230.1z"/>
		<path id="logcolor2" class="st0" d="M186.87,624.35c28.76,0,56.33,0,84.76,0c-14.22,21.81-28.06,43.05-42.38,65.02
			C215.01,667.52,201.23,646.38,186.87,624.35z"/>
		<path id="logcolor6" class="st1" d="M127.16,267.29c-13.75-13.13-16.54-36.86-5.67-53.5c4.46-6.82,6.14-12.79,4.92-21
			c-2.36-15.83,11.97-33.11,28.02-35.41c3.94-0.56,7.95-0.87,11.93-0.86c3.34,0,4.87-1,4.8-4.57c-0.06-3.13,0.39-6.3,0.86-9.42
			c1.74-11.54,11.11-19.66,22.78-19.86c10.53-0.18,21.11,7.65,22.61,18.25c1.2,8.49,0.6,17.24,0.73,25.88
			c0.16,10.25-2.57,19.43-10.26,26.64c-5.72,5.37-12.31,9.17-20.32,9.66c-2.89,0.18-3.8,1.46-3.63,4.09c0.3,4.65,0.6,9.3,0.78,13.95
			c0.12,3.15,2.26,3.72,4.46,3.09c7.3-2.09,14.53-4.41,21.72-6.86c2.12-0.72,3.99-2.18,6.64-3.67c0.21,2.16,0.45,3.56,0.46,4.96
			c0.18,25.15,0.4,50.29,0.44,75.44c0.02,13.15-0.26,26.31-0.48,39.46c-0.15,8.95-6.06,15.47-15.21,17
			c-7.75,1.29-16.05-3.81-18.7-11.74c-1.35-4.03-2.27-8.21-3.18-11.55c-7.49,0-14.44,1.06-20.93-0.22
			c-13.27-2.63-21.61-13.44-22.44-27.07c-0.71-11.65,6.67-23.09,18.33-27.72c3.46-1.37,4.78-2.8,3.42-6.57
			c-1.34-3.74-2.28-7.67-2.91-11.6c-0.58-3.6-2.58-4.23-5.19-2.75c-6.6,3.74-13.07,7.74-19.49,11.8
			C130.02,264.16,128.76,265.78,127.16,267.29z"/>
		<path id="logcolor5" class="st1" d="M239.59,213.29c2.64,1.5,4.08,2.62,5.72,3.2c7.63,2.68,15.26,5.39,23,7.72
			c3.06,0.93,5.05-0.38,4.9-4.15c-0.17-4.16,0.42-8.36,0.02-12.48c-0.15-1.57-1.91-3.96-3.32-4.28
			c-18.75-4.22-28.58-14.29-30.31-33.33c-0.85-9.37-0.36-18.99,0.64-28.38c1.15-10.83,12.12-19.28,23.02-18.91
			c11.99,0.41,21.92,9.72,22.74,21.16c0.27,3.8-0.32,8.59,1.73,11.05c1.69,2.03,6.71,1.31,10.25,1.8c20,2.75,30.46,12.57,33.47,31.8
			c0.45,2.87,0.26,6.08-0.57,8.86c-1.44,4.86-0.06,8.45,2.86,12.38c12.38,16.65,12.27,38.2,0.09,54.4c-0.3,0.4-0.6,0.8-0.91,1.19
			c-4.83,5.93-4.83,5.93-11.08,1.85c-15.56-10.14-36.61-9.22-49.95,2.72c3.69,4.71,7.25,9.67,11.35,14.13
			c0.8,0.87,3.94,0.3,5.62-0.46c12.74-5.74,27.03,0.71,30.63,13.99c2.1,7.74-3.14,19.32-11.28,25.07
			c-8.22,5.81-17.34,6.51-26.74,4.27c-3.9-0.93-5.11,0.41-5.64,3.88c-0.4,2.62-1.12,5.21-1.97,7.72
			c-2.52,7.49-9.83,12.74-16.99,12.36c-8.46-0.45-15.17-6.14-16.84-14.45c-0.49-2.43-0.75-4.94-0.76-7.42
			c-0.05-36.33-0.04-72.66-0.02-108.99C239.24,218.21,239.42,216.42,239.59,213.29z"/>
		<path id="logcolor4" class="st1" d="M247.82,533.03c-13.66-6.45-26.35-6.24-39.58,1.51c-0.25-56.46-7.32-110.6-22.27-164.47
			c4.11,0.54,7.45,1.03,10.81,1.4c10.27,1.15,19.55-1.41,27.58-7.88c3.19-2.56,5.5-3.08,8.96-0.12c9.26,7.92,20.31,9.31,31.99,7.55
			c1.12-0.17,2.23-0.32,4.66-0.67C255.34,423.57,248.16,477.16,247.82,533.03z"/>
	</g>
</g>
<g id="Trazos_1_">
	<g>
		<path id="trazo3_1_" class="st2" d="M266.53,538.43c1.72-1.18,3.44-2.37,5.17-3.54c14.82-9.96,34.1-8.52,46.58,3.26
			c2.39,2.26,2.68,3.98,0.85,6.76c-13.13,19.88-26.2,39.81-39.09,59.84c-3,4.66-6.51,6.71-12.26,6.65
			c-26.18-0.29-52.36-0.21-78.54-0.04c-4.54,0.03-7.4-1.59-9.83-5.35c-13.02-20.15-26.13-40.25-39.45-60.21
			c-2.56-3.83-1.85-6.05,1.39-8.75c11.69-9.76,28.65-11.39,42.6-3.83c1.86,1.01,3.7,2.07,6.42,3.59c0.22-2.49,0.52-4.18,0.51-5.87
			c-0.39-60.3-9.47-119.23-27.92-176.69c-1.21-3.77-3.01-5.46-7.08-6.31c-23.99-4.98-40.38-26.19-39.14-50.82
			c0.31-6.26-1-10.72-5.47-15.47c-19.91-21.13-23.11-52.68-8.83-77.85c1.53-2.7,2.43-6.21,2.36-9.32
			c-0.62-27.33,15.98-49.82,42.3-57.36c2.13-0.61,4.76-2.8,5.4-4.81c9.9-31.31,50.22-40.98,73.54-17.93
			c3.28,3.24,4.84,0.72,6.9-1.13c21.45-19.26,55.22-14.34,68.37,11.16c4.44,8.61,9.68,12.92,18.33,16.28
			c21.41,8.32,34.86,31.74,32.97,54.41c-0.19,2.29,0.58,4.98,1.73,7.01c16.26,28.71,12.28,59.11-10.75,82.99
			c-1.64,1.7-2.68,4.96-2.43,7.33c2.95,27.69-14.45,51.12-42,55.93c-3.52,0.61-4.95,2.55-5.98,5.68
			c-8.72,26.61-15.15,53.78-19.8,81.36c-5.37,31.88-8.18,64-8.23,96.35c0,1.97,0,3.93,0,5.9
			C265.6,537.92,266.06,538.17,266.53,538.43z"/>
		<path id="trazo1_1_" class="st2" d="M0.25,230.1c1.52-69.37,26.62-128.36,78.92-174.74c31.66-28.08,68.89-45.19,110.91-51.31
			c11.99-1.75,24.16-4.01,36.17-3.64c47.89,1.47,93.37,11.84,133.62,39.51c34.98,24.04,59.08,56.81,76.32,95.06
			c11.15,24.74,18.89,50.5,21.82,77.51c4.14,38.12-2.1,74.59-18.35,109.35c-12.5,26.74-30.7,49.37-50.29,71.15
			c-23.14,25.74-42.48,53.98-52.32,87.65c-3.02,10.33-4.61,21.08-6.82,31.65c-0.94,4.52-2.14,9.23-7,10.72
			c-5.17,1.59-9.12-1.46-12.84-4.92c-7.58-7.04-6.81-15.6-5.27-24.56c7.34-42.93,25.54-80.13,56.52-111.25
			c13-13.05,25.23-27.16,35.99-42.1c19.03-26.41,30.48-56.16,32.44-88.91c3.82-63.9-15.2-120.04-59.73-166.41
			c-28.1-29.26-63.79-45.38-103.15-53.52C157.39,8.66,52.91,82.37,32.07,187.83c-14.48,73.3,5.87,137.09,57.94,190.47
			c23.13,23.71,40.97,50.43,50.28,82.27c3.95,13.5,6.14,27.53,8.74,41.39c1.54,8.2-3.04,14.11-8.98,18.87
			c-6.13,4.91-12.67,3-14.77-4.6c-1.89-6.86-2.58-14.04-3.97-21.04c-7.01-35.19-24.23-65.33-46.34-92.99
			c-11.13-13.92-23.24-27.13-33.56-41.61C18.51,328.5,5.37,292.51,1.72,253.19C1.01,245.57,0.74,237.92,0.25,230.1z"/>
		<path id="trazo2_1_" class="st2" d="M186.87,624.35c28.76,0,56.33,0,84.76,0c-14.22,21.81-28.06,43.05-42.38,65.02
			C215.01,667.52,201.23,646.38,186.87,624.35z"/>
		<path id="trazo6_1_" class="st2" d="M127.16,267.29c-13.75-13.13-16.54-36.86-5.67-53.5c4.46-6.82,6.14-12.79,4.92-21
			c-2.36-15.83,11.97-33.11,28.02-35.41c3.94-0.56,7.95-0.87,11.93-0.86c3.34,0,4.87-1,4.8-4.57c-0.06-3.13,0.39-6.3,0.86-9.42
			c1.74-11.54,11.11-19.66,22.78-19.86c10.53-0.18,21.11,7.65,22.61,18.25c1.2,8.49,0.6,17.24,0.73,25.88
			c0.16,10.25-2.57,19.43-10.26,26.64c-5.72,5.37-12.31,9.17-20.32,9.66c-2.89,0.18-3.8,1.46-3.63,4.09c0.3,4.65,0.6,9.3,0.78,13.95
			c0.12,3.15,2.26,3.72,4.46,3.09c7.3-2.09,14.53-4.41,21.72-6.86c2.12-0.72,3.99-2.18,6.64-3.67c0.21,2.16,0.45,3.56,0.46,4.96
			c0.18,25.15,0.4,50.29,0.44,75.44c0.02,13.15-0.26,26.31-0.48,39.46c-0.15,8.95-6.06,15.47-15.21,17
			c-7.75,1.29-16.05-3.81-18.7-11.74c-1.35-4.03-2.27-8.21-3.18-11.55c-7.49,0-14.44,1.06-20.93-0.22
			c-13.27-2.63-21.61-13.44-22.44-27.07c-0.71-11.65,6.67-23.09,18.33-27.72c3.46-1.37,4.78-2.8,3.42-6.57
			c-1.34-3.74-2.28-7.67-2.91-11.6c-0.58-3.6-2.58-4.23-5.19-2.75c-6.6,3.74-13.07,7.74-19.49,11.8
			C130.02,264.16,128.76,265.78,127.16,267.29z"/>
		<path id="trazo5_1_" class="st2" d="M239.59,213.29c2.64,1.5,4.08,2.62,5.72,3.2c7.63,2.68,15.26,5.39,23,7.72
			c3.06,0.93,5.05-0.38,4.9-4.15c-0.17-4.16,0.42-8.36,0.02-12.48c-0.15-1.57-1.91-3.96-3.32-4.28
			c-18.75-4.22-28.58-14.29-30.31-33.33c-0.85-9.37-0.36-18.99,0.64-28.38c1.15-10.83,12.12-19.28,23.02-18.91
			c11.99,0.41,21.92,9.72,22.74,21.16c0.27,3.8-0.32,8.59,1.73,11.05c1.69,2.03,6.71,1.31,10.25,1.8c20,2.75,30.46,12.57,33.47,31.8
			c0.45,2.87,0.26,6.08-0.57,8.86c-1.44,4.86-0.06,8.45,2.86,12.38c12.38,16.65,12.27,38.2,0.09,54.4c-0.3,0.4-0.6,0.8-0.91,1.19
			c-4.83,5.93-4.83,5.93-11.08,1.85c-15.56-10.14-36.61-9.22-49.95,2.72c3.69,4.71,7.25,9.67,11.35,14.13
			c0.8,0.87,3.94,0.3,5.62-0.46c12.74-5.74,27.03,0.71,30.63,13.99c2.1,7.74-3.14,19.32-11.28,25.07
			c-8.22,5.81-17.34,6.51-26.74,4.27c-3.9-0.93-5.11,0.41-5.64,3.88c-0.4,2.62-1.12,5.21-1.97,7.72
			c-2.52,7.49-9.83,12.74-16.99,12.36c-8.46-0.45-15.17-6.14-16.84-14.45c-0.49-2.43-0.75-4.94-0.76-7.42
			c-0.05-36.33-0.04-72.66-0.02-108.99C239.24,218.21,239.42,216.42,239.59,213.29z"/>
		<path id="trazo4_1_" class="st2" d="M247.82,533.03c-13.66-6.45-26.35-6.24-39.58,1.51c-0.25-56.46-7.32-110.6-22.27-164.47
			c4.11,0.54,7.45,1.03,10.81,1.4c10.27,1.15,19.55-1.41,27.58-7.88c3.19-2.56,5.5-3.08,8.96-0.12c9.26,7.92,20.31,9.31,31.99,7.55
			c1.12-0.17,2.23-0.32,4.66-0.67C255.34,423.57,248.16,477.16,247.82,533.03z"/>
	</g>
</g>
</svg>
